{"glyphs":{"0":{"ha":665,"x_min":92,"x_max":790,"o":"m 411 1057 l 429 1063 l 547 1060 q 719 583 790 960 q 513 228 690 369 q 438 196 482 208 l 417 190 l 300 190 l 251 206 q 104 543 92 313 l 117 632 q 268 976 132 813 q 325 1022 288 996 l 338 1028 l 344 1033 l 404 1057 l 411 1057 m 503 911 q 457 936 488 933 q 401 893 428 922 q 314 411 294 672 q 325 365 315 396 q 328 356 325 361 q 333 344 331 351 q 383 317 349 318 q 435 354 410 325 q 524 847 549 583 q 504 906 521 876 l 503 911 z "},"1":{"ha":457,"x_min":74,"x_max":474,"o":"m 350 1058 l 401 1074 q 474 1031 460 1085 l 375 325 q 442 228 471 319 q 415 203 432 215 l 97 203 q 78 233 82 214 q 174 325 74 318 q 178 346 176 335 q 182 369 181 357 l 258 906 q 189 1004 147 897 q 208 1022 194 1013 l 274 1039 q 333 1056 310 1047 l 350 1058 z "},"2":{"ha":685,"x_min":72,"x_max":724,"o":"m 150 782 q 425 1079 188 1008 q 700 911 639 1110 q 494 501 724 690 q 456 465 482 486 l 374 390 l 547 390 q 671 460 629 486 q 697 390 713 443 l 664 331 l 653 311 q 636 275 649 293 q 623 249 629 261 q 610 228 617 238 l 600 214 l 590 206 q 528 203 564 201 l 92 203 q 72 228 79 210 l 81 286 l 90 300 l 231 429 l 242 440 l 325 518 l 340 533 l 438 647 q 446 658 442 649 l 460 678 l 485 732 l 489 746 q 493 838 503 788 q 393 893 468 897 q 268 771 307 874 q 238 746 257 756 q 150 782 182 735 z "},"3":{"ha":590,"x_min":72,"x_max":711,"o":"m 151 842 q 224 788 160 782 q 242 797 235 793 q 257 807 250 801 q 458 875 364 968 q 278 696 465 739 q 265 685 271 690 q 253 674 258 679 q 258 593 236 624 l 274 585 q 450 497 417 603 q 389 349 461 404 q 328 335 360 335 q 72 278 96 486 q 99 233 81 251 q 133 210 117 215 l 160 200 q 517 283 356 172 q 642 508 631 383 q 572 724 663 650 q 629 1008 711 863 q 406 1075 538 1099 q 151 842 207 1021 z "},"4":{"ha":668,"x_min":76,"x_max":711,"o":"m 532 1053 l 550 1067 l 644 1067 l 660 1053 l 664 1047 q 667 1028 667 1038 q 667 1007 668 1018 l 604 567 q 710 540 674 572 q 706 499 711 521 l 694 418 q 579 385 650 376 l 560 250 l 556 233 q 503 203 538 203 l 392 203 l 374 217 q 368 253 367 233 l 385 376 l 383 388 l 129 388 q 92 396 108 388 l 76 418 l 93 535 l 532 1053 m 433 724 l 433 738 l 289 564 l 411 563 l 433 724 z "},"5":{"ha":643,"x_min":99,"x_max":807,"o":"m 657 1056 q 689 1082 665 1068 q 736 968 807 1082 q 660 868 717 911 l 443 865 l 428 857 q 644 399 783 774 q 149 208 465 117 q 104 256 125 224 q 107 339 99 289 q 364 328 188 467 q 457 382 415 336 q 233 669 588 650 q 196 708 210 679 q 201 751 196 729 q 224 786 210 764 l 226 794 q 239 813 233 803 q 251 836 244 824 l 261 849 l 290 900 l 297 908 q 312 934 306 922 q 325 957 318 946 l 329 965 q 354 1007 342 982 l 378 1042 l 389 1050 q 467 1056 422 1058 l 657 1056 z "},"6":{"ha":665,"x_min":58,"x_max":800,"o":"m 186 779 q 154 314 58 522 q 244 224 190 257 l 257 215 l 303 200 q 682 411 567 167 q 422 794 800 825 q 711 971 544 950 q 728 981 721 976 q 743 993 736 986 q 649 1089 792 1110 q 186 779 342 1032 m 456 354 l 428 332 q 404 328 415 329 q 383 329 393 328 q 340 368 357 346 q 342 621 299 496 q 371 636 357 631 q 399 644 385 642 q 501 539 500 642 q 456 354 501 435 z "},"7":{"ha":638,"x_min":144,"x_max":756,"o":"m 144 829 q 269 1068 250 1053 l 719 1068 q 753 1051 738 1065 q 747 981 756 1018 l 399 225 q 387 214 393 219 q 374 203 381 208 l 263 203 l 249 206 l 233 228 l 232 233 l 490 806 l 490 813 l 510 851 l 514 863 l 525 882 l 350 885 l 326 882 l 304 874 q 284 854 294 865 q 263 829 274 843 l 260 824 l 247 808 l 235 797 q 190 792 217 792 q 144 829 161 801 z "},"8":{"ha":617,"x_min":92,"x_max":706,"o":"m 175 894 q 404 1082 233 1042 q 676 946 611 1113 q 539 668 706 782 q 642 458 635 599 q 372 176 626 213 q 92 364 142 144 q 243 632 94 526 q 175 894 132 731 m 500 889 q 421 949 490 951 q 353 869 363 933 q 426 761 371 806 l 439 769 q 500 889 493 814 m 449 417 q 344 540 419 486 q 299 344 261 451 l 321 318 q 449 417 439 288 z "},"9":{"ha":674,"x_min":58,"x_max":794,"o":"m 667 514 q 700 975 794 763 q 610 1064 665 1032 l 596 1072 l 551 1089 q 176 878 286 1121 q 432 497 58 467 q 147 322 311 343 q 113 300 126 311 q 208 206 67 183 q 667 514 517 261 m 400 935 l 426 956 q 450 959 439 958 q 471 958 461 960 q 514 921 499 944 q 514 669 554 797 q 456 646 483 651 q 353 751 353 649 q 400 935 353 854 z "}," ":{"ha":386,"x_min":0,"x_max":0,"o":""},"!":{"ha":371,"x_min":118,"x_max":451,"o":"m 239 1022 l 226 985 l 199 438 q 219 407 208 418 q 124 258 118 351 q 224 185 149 182 q 336 240 293 183 q 290 404 390 358 l 315 429 l 321 446 l 451 990 q 444 1026 449 1010 q 432 1056 439 1042 q 315 1089 382 1099 q 239 1022 264 1063 z "},"\"":{"ha":589,"x_min":221,"x_max":633,"o":"m 304 882 l 400 1075 q 425 1146 421 1122 q 406 1197 429 1174 q 335 1219 382 1219 q 261 1197 293 1219 q 225 1143 229 1175 q 229 1076 221 1115 l 271 882 l 304 882 m 510 882 l 603 1076 q 631 1147 629 1131 q 611 1195 633 1171 q 542 1219 589 1219 q 466 1197 499 1219 q 429 1144 433 1175 q 436 1076 425 1122 l 476 882 l 510 882 z "},"#":{"ha":868,"x_min":111,"x_max":926,"o":"m 204 328 l 113 64 l 267 64 l 357 328 l 508 328 l 418 64 l 569 64 l 660 328 l 856 328 l 876 478 l 711 478 l 782 678 l 906 678 l 926 828 l 833 828 l 924 1092 l 765 1092 l 678 828 l 528 828 l 617 1092 l 465 1092 l 376 828 l 182 828 l 161 678 l 325 678 l 254 478 l 132 478 l 111 328 l 204 328 m 476 678 l 626 678 l 558 478 l 408 478 l 476 678 z "},"$":{"ha":642,"x_min":94,"x_max":717,"o":"m 403 1046 q 447 1122 410 1092 l 528 1122 l 535 1119 q 553 1046 557 1090 q 713 972 643 1038 l 717 951 l 696 804 q 674 775 689 789 q 592 775 632 758 q 579 796 585 781 q 529 904 581 860 l 504 724 q 678 435 714 618 q 435 204 644 247 q 389 101 433 146 l 303 101 q 286 200 272 136 q 94 278 179 201 l 119 476 q 214 497 161 517 l 231 476 l 233 471 q 308 340 225 376 l 340 568 q 181 856 143 667 q 403 1046 228 1011 m 382 883 l 381 892 q 374 818 353 856 l 382 883 m 456 354 q 469 479 510 414 l 454 368 l 456 354 z "},"%":{"ha":997,"x_min":93,"x_max":1031,"o":"m 686 964 q 825 1038 758 979 l 913 1038 q 938 983 939 1021 q 926 965 932 975 q 913 943 921 954 l 861 872 q 856 863 860 868 q 847 850 853 857 l 838 835 l 821 813 q 814 801 818 810 l 750 713 l 729 682 l 718 665 l 696 631 l 686 619 q 918 690 789 701 q 1031 565 1018 671 q 808 197 1026 336 q 546 264 631 111 l 546 267 q 547 422 526 336 l 472 314 l 461 297 l 444 275 l 440 267 q 419 238 429 256 q 406 221 413 231 q 393 200 400 211 q 385 188 390 197 q 364 164 379 178 q 308 158 340 156 q 233 213 233 143 q 276 281 240 229 l 281 289 l 351 386 q 365 406 358 399 l 372 419 l 382 431 l 392 446 l 419 485 l 424 492 l 440 514 q 444 518 442 515 q 447 525 446 521 l 464 550 l 476 565 q 204 531 335 454 q 178 810 93 638 q 558 1013 315 1063 q 586 994 571 1007 l 615 969 q 667 964 633 964 l 686 964 m 501 861 q 463 886 488 868 q 325 647 346 794 q 347 639 333 640 q 501 861 482 703 m 664 832 l 633 835 q 618 782 622 810 l 611 767 l 613 758 l 650 813 l 661 826 l 664 832 m 894 539 q 863 554 883 553 q 721 314 742 469 l 739 306 q 894 539 886 374 z "},"&":{"ha":969,"x_min":81,"x_max":1001,"o":"m 336 685 q 81 340 93 567 q 281 169 111 167 q 554 251 435 164 q 981 324 786 49 q 968 392 993 367 q 910 408 940 410 q 715 406 799 294 l 724 414 l 726 419 l 740 433 l 790 492 l 794 500 l 838 563 l 843 568 l 857 588 q 904 636 875 615 q 990 682 961 639 q 982 758 1001 722 q 967 765 974 763 q 953 769 960 768 l 733 769 q 536 1049 851 1063 q 336 685 276 956 m 546 790 l 535 781 q 558 913 504 868 q 546 790 663 894 m 706 636 l 696 607 l 693 599 l 672 568 l 669 560 l 639 519 l 622 551 l 617 557 l 607 582 l 600 596 l 578 644 l 640 682 q 706 636 661 639 m 386 531 l 471 363 q 313 371 368 289 q 376 547 271 476 q 381 540 379 544 q 386 531 383 536 z "},"'":{"ha":308,"x_min":218,"x_max":426,"o":"m 301 882 l 397 1075 q 422 1146 418 1122 q 403 1197 426 1174 q 332 1219 379 1219 q 258 1197 290 1219 q 222 1143 226 1175 q 226 1076 218 1115 l 268 882 l 301 882 z "},"(":{"ha":463,"x_min":144,"x_max":603,"o":"m 418 -65 q 383 49 397 0 q 363 133 369 99 q 338 355 342 239 q 349 583 333 471 q 379 740 360 664 q 426 889 399 817 q 497 1048 454 961 q 603 1239 540 1135 l 472 1239 q 373 1104 419 1174 q 286 958 326 1035 q 211 778 240 871 q 167 588 182 686 q 175 260 144 428 q 286 -65 206 93 l 418 -65 z "},")":{"ha":463,"x_min":76,"x_max":526,"o":"m 76 -65 q 188 133 157 67 q 277 355 240 239 q 329 583 314 471 q 342 740 340 664 q 336 889 343 817 q 258 1239 322 1029 l 388 1239 q 497 958 460 1111 q 522 778 518 871 q 511 588 526 686 q 412 260 489 428 q 207 -65 335 93 l 76 -65 z "},"*":{"ha":540,"x_min":0,"x_max":0,"o":""},"+":{"ha":811,"x_min":0,"x_max":0,"o":""},",":{"ha":386,"x_min":133,"x_max":415,"o":"m 133 -53 q 322 58 254 -18 q 404 231 390 133 q 381 354 415 310 q 288 399 346 399 q 240 390 263 399 q 200 365 218 381 q 170 328 182 349 q 156 286 158 308 q 174 213 149 244 q 239 182 199 182 q 290 193 268 182 q 303 199 297 199 q 313 193 308 199 q 314 175 314 189 q 263 64 306 117 q 138 -24 221 11 l 133 -53 z "},"-":{"ha":557,"x_min":183,"x_max":689,"o":"m 183 485 l 647 485 l 689 629 l 225 629 l 183 485 z "},".":{"ha":432,"x_min":129,"x_max":369,"o":"m 265 404 q 220 395 242 404 q 181 371 199 386 q 152 335 164 356 q 136 290 140 314 q 158 210 129 243 q 233 178 188 178 q 318 210 281 178 q 363 290 356 243 q 342 371 369 338 q 265 404 314 404 z "},"/":{"ha":386,"x_min":0,"x_max":0,"o":""},":":{"ha":446,"x_min":175,"x_max":482,"o":"m 378 939 q 333 930 354 939 q 294 906 311 921 q 265 869 276 890 q 249 825 253 849 q 252 781 246 801 q 272 746 258 761 q 303 722 285 731 q 346 713 322 713 q 431 746 393 713 q 475 825 468 779 q 453 906 482 872 q 378 939 425 939 m 310 514 q 265 505 286 514 q 226 481 243 496 q 197 444 208 465 q 182 401 185 424 q 203 322 175 354 q 278 289 232 289 q 363 322 325 289 q 408 401 401 354 q 387 481 415 447 q 310 514 358 514 z "},";":{"ha":386,"x_min":157,"x_max":593,"o":"m 497 939 q 408 906 450 939 q 351 825 367 872 q 363 746 339 779 q 433 713 386 713 q 480 722 457 713 q 523 746 503 731 q 557 781 543 761 q 578 825 571 801 q 569 906 593 872 q 497 939 544 939 m 157 63 q 363 174 283 99 q 469 346 442 249 q 478 417 481 385 q 463 470 476 449 q 428 503 450 492 q 376 515 406 515 q 328 506 351 515 q 285 481 304 497 q 250 445 265 465 q 229 403 235 425 q 237 328 217 360 q 297 297 257 297 q 349 310 325 297 q 364 314 361 314 q 371 308 371 314 q 369 290 374 304 q 304 181 354 235 q 165 93 254 126 l 157 63 z "},"<":{"ha":811,"x_min":0,"x_max":0,"o":""},"=":{"ha":811,"x_min":0,"x_max":0,"o":""},">":{"ha":811,"x_min":0,"x_max":0,"o":""},"?":{"ha":558,"x_min":147,"x_max":697,"o":"m 147 867 q 303 778 147 706 q 321 950 385 869 q 401 954 364 972 q 440 893 438 936 l 439 875 q 426 826 435 846 l 403 764 l 381 718 l 369 697 q 265 436 258 543 q 278 407 269 419 q 194 285 203 361 q 261 186 203 213 q 404 239 349 175 q 375 410 460 349 l 382 419 l 394 447 l 396 457 l 404 476 l 414 500 l 436 543 l 446 554 l 490 608 q 635 993 697 799 q 365 1111 550 1136 q 210 1023 265 1083 q 147 867 154 963 z "},"@":{"ha":1092,"x_min":126,"x_max":1183,"o":"m 126 517 q 414 133 161 218 q 933 203 689 54 q 904 325 958 286 q 1129 606 1085 426 q 1044 981 1183 839 q 650 1096 875 1126 q 126 517 160 985 m 904 869 l 893 868 l 821 864 q 479 729 632 936 q 413 358 331 535 q 392 711 299 522 q 696 946 488 925 q 904 869 824 943 m 874 471 l 850 465 q 854 477 851 469 q 861 496 857 485 l 865 507 l 871 519 l 881 542 l 885 556 l 928 660 l 932 672 l 938 688 l 944 703 l 950 724 q 965 764 964 746 q 874 471 1011 594 m 732 706 q 603 474 711 553 l 592 486 q 724 711 594 638 l 732 706 m 807 304 q 435 331 590 225 q 678 358 563 275 q 807 304 736 304 z "},"A":{"ha":850,"x_min":42,"x_max":1611,"o":"m 542 1004 q 585 1051 554 1035 q 667 1024 636 1061 l 803 435 q 1206 -157 965 -140 q 1432 -74 1322 -162 q 1472 94 1353 36 q 1607 42 1565 133 q 1554 -124 1611 -39 q 1467 -207 1525 -165 l 1460 -212 l 1376 -257 l 1314 -279 q 663 167 900 -381 q 592 413 656 176 l 589 418 l 379 418 l 310 313 l 303 293 q 350 179 406 285 q 315 163 335 168 l 90 163 q 42 193 53 172 l 50 254 q 111 290 69 288 l 126 301 l 531 988 l 542 1004 m 539 683 l 533 697 l 489 617 l 483 608 l 468 579 l 461 571 l 560 571 l 571 574 l 546 653 l 540 672 l 539 683 z "},"B":{"ha":932,"x_min":104,"x_max":1026,"o":"m 128 856 q 381 1079 169 1053 l 714 1079 l 736 1076 l 763 1076 l 865 1049 l 900 1032 q 981 929 951 997 q 893 635 1022 771 q 935 306 1026 515 q 686 144 876 163 l 678 142 l 206 142 q 182 168 194 149 q 279 276 174 278 q 301 288 290 279 l 307 306 l 392 911 l 390 929 q 306 911 351 935 q 253 732 347 818 q 128 856 104 681 m 767 792 q 614 921 786 940 q 606 876 606 900 l 582 713 q 767 792 725 681 m 732 396 q 561 544 763 558 q 553 514 556 531 q 549 476 551 497 l 525 303 q 732 396 682 267 z "},"C":{"ha":835,"x_min":107,"x_max":935,"o":"m 107 522 q 551 1075 131 971 l 688 1075 l 810 1040 q 931 1067 864 1099 q 913 749 935 1053 q 897 717 908 735 q 803 701 853 688 q 782 731 790 711 q 521 899 757 982 q 365 682 401 832 q 356 433 331 565 q 690 344 447 211 q 750 460 685 408 q 851 454 801 479 q 863 321 896 401 q 386 144 669 99 q 107 522 118 206 z "},"D":{"ha":1044,"x_min":101,"x_max":1131,"o":"m 147 897 q 400 1082 218 1063 l 753 1079 l 788 1075 q 835 1067 803 1071 l 853 1061 l 872 1056 l 879 1056 l 964 1017 l 1006 986 l 1033 960 l 1069 915 l 1071 910 l 1081 897 q 1099 856 1085 876 l 1103 847 q 1122 654 1131 754 q 1068 446 1114 554 q 751 169 968 244 l 722 164 l 690 154 q 671 151 679 154 l 651 149 l 221 149 q 201 167 208 156 q 300 286 181 283 l 308 294 q 314 321 311 306 q 319 354 317 336 l 392 874 q 396 922 399 894 l 397 931 q 326 922 367 938 l 321 915 q 264 735 361 815 q 147 897 101 693 m 894 683 q 621 925 874 932 l 531 307 q 704 331 611 294 q 894 683 903 433 z "},"E":{"ha":956,"x_min":106,"x_max":1035,"o":"m 139 889 q 428 1099 199 1090 l 979 1099 l 1000 1096 q 1026 1072 1018 1089 q 1019 956 1035 1022 l 1014 917 l 1015 907 l 1007 853 l 996 829 q 936 806 968 806 l 932 800 q 925 731 933 775 l 894 513 l 888 482 q 857 449 878 465 q 778 453 819 438 q 760 539 757 488 q 750 557 757 549 q 694 563 733 563 l 606 563 l 583 567 l 572 563 l 538 321 q 631 315 575 311 q 881 453 794 288 q 903 474 888 463 q 986 474 944 483 q 1004 446 997 463 l 997 399 l 968 324 l 963 311 l 956 293 l 954 285 q 950 272 950 281 l 928 215 l 921 201 l 917 186 l 900 168 l 893 163 q 825 158 865 156 l 236 158 q 208 183 219 164 q 313 300 196 289 q 342 475 319 318 q 404 931 364 632 l 404 946 q 315 928 361 951 q 253 743 357 825 q 139 889 106 710 m 792 938 l 628 938 q 615 868 619 911 l 597 740 l 599 728 l 692 728 q 740 731 708 724 l 749 731 q 778 736 765 731 q 799 782 792 754 q 806 802 801 792 q 815 824 810 813 q 876 850 844 849 q 874 888 879 869 q 860 925 869 907 q 792 938 831 938 z "},"F":{"ha":908,"x_min":101,"x_max":1035,"o":"m 150 894 q 431 1076 229 1069 l 983 1076 l 1006 1074 q 1035 1042 1022 1065 l 1007 821 q 1003 815 1006 818 q 1000 808 1001 813 q 928 785 968 786 l 885 472 q 872 454 879 463 q 856 436 864 446 q 776 436 818 425 q 760 463 764 449 q 753 535 761 493 l 751 540 q 647 549 708 550 l 590 549 l 581 546 l 547 289 q 640 233 632 283 q 551 150 636 142 l 235 150 q 213 183 218 164 q 311 283 213 286 l 324 292 l 328 310 l 413 908 l 410 926 q 322 911 371 932 q 263 729 367 807 q 150 894 101 688 m 810 918 l 636 918 q 628 888 631 904 q 624 850 626 871 l 606 724 l 607 711 l 696 711 q 742 714 718 708 l 758 714 l 771 717 q 808 803 797 751 q 883 832 839 832 q 865 906 883 875 q 818 915 847 915 l 810 918 z "},"G":{"ha":929,"x_min":96,"x_max":1006,"o":"m 108 458 q 593 142 183 92 l 604 142 l 611 144 l 625 147 l 638 150 l 732 176 l 754 185 q 767 192 761 189 q 778 197 774 194 q 804 208 793 203 q 824 219 815 214 l 850 243 l 863 272 l 900 544 l 907 556 q 989 669 1006 567 q 975 682 982 676 q 964 690 968 688 l 644 690 q 607 661 619 678 q 676 556 572 550 l 685 547 l 653 318 q 372 388 465 236 q 353 632 321 503 q 510 896 378 801 q 794 742 750 992 l 808 724 q 872 715 843 714 q 895 731 885 722 q 915 747 906 739 l 919 765 l 928 817 q 928 849 926 835 q 933 875 931 864 l 935 893 q 939 942 933 919 l 943 985 l 950 1038 q 932 1075 946 1060 q 824 1043 864 1096 l 815 1043 l 797 1049 l 768 1058 q 736 1068 751 1067 q 708 1075 721 1069 l 699 1075 q 671 1078 686 1081 l 551 1078 q 108 458 96 964 z "},"H":{"ha":1054,"x_min":103,"x_max":1846,"o":"m 126 851 q 381 1075 169 1049 l 682 1075 l 700 1072 l 713 1067 q 721 983 733 1031 q 629 935 689 932 l 615 926 l 582 696 l 821 696 l 854 926 q 796 940 831 940 l 783 947 l 768 961 q 766 997 765 978 q 771 1036 767 1015 q 788 1056 778 1047 q 813 1075 799 1065 l 1154 1075 l 1168 1069 q 1182 983 1194 1036 q 1076 929 1150 935 l 1071 911 l 1022 560 q 1267 -111 929 128 q 1332 -132 1293 -124 q 1586 -85 1456 -153 q 1668 26 1592 -4 q 1697 -168 1846 14 q 1608 -231 1654 -208 l 1583 -243 l 1531 -261 l 1522 -261 l 1504 -267 l 1486 -269 l 1468 -272 q 1417 -278 1447 -278 l 1363 -278 q 968 -124 1139 -292 q 799 526 749 119 q 773 530 788 529 q 739 529 758 531 l 560 529 q 546 456 550 503 l 522 294 l 539 293 q 611 267 579 296 q 606 186 621 233 q 565 153 586 164 l 224 153 q 194 179 207 164 q 293 293 182 293 l 307 301 l 392 908 l 392 926 q 306 908 350 932 q 253 729 344 813 q 126 851 103 676 z "},"I":{"ha":617,"x_min":118,"x_max":749,"o":"m 142 860 q 399 1083 181 1056 l 718 1083 q 749 1050 738 1072 q 719 960 749 1003 q 687 951 703 954 q 653 949 671 949 q 624 943 644 946 l 543 363 q 540 342 540 353 q 539 317 539 331 q 547 294 539 300 q 625 183 665 306 q 596 160 613 171 l 217 160 q 193 189 207 168 q 226 283 185 238 q 301 294 257 294 l 315 304 q 319 330 317 315 q 326 363 322 344 l 400 889 q 402 911 401 900 q 401 936 403 922 q 321 918 361 939 q 268 739 360 821 q 142 860 118 689 z "},"J":{"ha":617,"x_min":107,"x_max":751,"o":"m 153 893 q 429 1071 232 1065 l 700 1071 l 714 1069 l 731 1067 q 751 1038 743 1056 q 656 938 751 938 q 635 926 646 935 l 565 450 q 562 425 564 439 q 554 393 560 411 l 553 385 q 548 364 551 375 q 540 342 544 353 l 526 308 q 211 165 413 122 l 179 182 l 172 188 q 135 282 143 225 q 215 399 142 356 q 336 368 288 425 l 413 907 l 407 926 q 326 910 368 929 q 271 735 368 810 q 153 893 107 685 z "},"K":{"ha":908,"x_min":108,"x_max":1539,"o":"m 136 874 q 418 1089 189 1076 l 704 1089 q 710 961 769 1038 q 680 953 697 957 q 640 947 663 950 l 632 947 l 606 771 l 796 947 l 800 953 q 750 1050 722 956 q 775 1079 758 1064 q 858 1089 808 1092 l 1106 1089 l 1131 1079 q 1133 979 1158 1040 q 1106 956 1121 964 l 1075 953 l 1056 950 q 1032 944 1043 947 q 1014 935 1021 940 q 797 729 808 738 q 968 106 785 394 l 1001 61 l 1032 32 l 1038 26 q 1092 -7 1056 7 l 1118 -18 q 1153 -25 1133 -24 q 1197 -25 1174 -26 q 1226 -21 1215 -21 l 1299 6 l 1344 32 q 1460 217 1299 189 q 1531 103 1539 197 q 1376 -104 1503 -25 q 1348 -119 1364 -111 q 1313 -136 1332 -126 l 1261 -154 l 1244 -157 l 1225 -160 l 1210 -162 l 1200 -165 l 1067 -165 q 1025 -157 1050 -160 l 985 -142 l 979 -139 q 947 -124 968 -137 l 943 -121 q 928 -112 936 -117 q 910 -104 921 -108 q 619 561 657 108 l 563 500 l 536 319 l 536 306 l 549 296 q 626 264 596 303 q 619 197 631 236 q 590 164 608 178 q 483 158 551 156 l 236 158 q 203 185 217 165 q 297 296 186 296 l 311 306 q 316 328 314 317 q 321 353 318 339 l 394 879 q 400 935 400 900 q 314 921 363 944 q 261 742 356 824 q 136 874 108 692 z "},"L":{"ha":963,"x_min":111,"x_max":1006,"o":"m 135 863 q 392 1089 178 1063 l 714 1089 q 746 1056 732 1078 q 729 976 747 1015 q 701 956 719 964 q 631 943 672 956 q 610 828 618 900 l 538 317 q 600 314 564 310 l 679 314 l 696 317 l 722 317 l 757 325 l 765 325 l 796 340 q 886 456 850 385 l 910 476 q 1006 450 971 497 l 999 403 q 981 354 992 379 q 974 337 978 346 q 964 317 969 328 l 963 307 l 956 294 l 943 263 l 938 247 l 913 182 q 885 156 903 169 l 228 156 q 206 189 219 165 q 307 292 201 292 l 317 304 q 322 331 319 315 q 328 364 325 346 l 403 901 l 403 919 l 403 938 q 314 922 365 946 q 261 742 356 824 q 135 863 111 688 z "},"M":{"ha":1247,"x_min":113,"x_max":1386,"o":"m 142 863 q 421 1075 193 1060 l 586 1075 q 608 1071 599 1074 q 624 1064 617 1068 q 669 923 632 1046 q 769 567 706 800 l 771 557 l 781 540 q 788 557 783 549 q 799 575 792 565 l 1071 1064 q 1103 1075 1086 1074 l 1331 1075 l 1347 1072 q 1371 1054 1364 1065 q 1344 950 1386 1000 q 1312 941 1329 944 q 1272 936 1294 938 l 1265 926 l 1260 910 l 1174 303 q 1264 258 1236 299 q 1168 163 1268 147 l 861 163 q 840 194 851 172 q 936 293 833 293 l 958 299 l 1000 607 q 1004 654 1006 628 l 753 197 q 721 163 746 181 l 658 163 l 646 171 l 635 200 l 519 624 l 476 322 l 475 314 l 476 301 q 507 292 492 296 q 540 288 522 289 q 563 264 551 281 q 563 227 564 246 q 554 189 561 208 l 538 171 l 525 163 l 211 163 q 190 192 199 171 q 285 293 183 290 q 313 301 297 296 l 399 896 l 397 913 l 397 926 q 317 910 358 929 q 261 729 358 810 q 142 863 113 690 z "},"N":{"ha":1061,"x_min":111,"x_max":1206,"o":"m 138 857 q 419 1068 190 1057 l 557 1068 l 581 1060 q 728 822 600 1039 q 863 600 858 607 q 867 593 865 597 q 872 585 869 589 l 918 924 q 822 999 806 938 q 894 1069 824 1033 l 1158 1068 q 1189 1044 1178 1061 q 1097 929 1206 935 q 1087 926 1093 928 q 1072 922 1081 925 l 971 206 q 944 151 967 174 q 865 149 907 140 q 840 186 850 163 l 831 203 q 525 700 532 685 l 521 707 l 461 292 l 486 290 q 550 186 583 292 q 506 154 533 165 l 264 154 q 221 157 240 151 l 213 157 q 218 279 156 210 q 256 288 233 285 q 308 293 278 292 l 393 904 q 314 903 360 924 q 264 726 356 808 q 138 857 111 679 z "},"O":{"ha":915,"x_min":72,"x_max":971,"o":"m 175 810 q 539 1089 292 1033 q 971 697 939 1129 q 547 136 946 244 l 425 136 q 138 356 228 153 q 175 810 72 565 m 731 613 q 583 939 781 904 q 346 607 383 903 q 494 286 304 314 q 731 613 697 318 z "},"P":{"ha":899,"x_min":121,"x_max":999,"o":"m 142 863 q 396 1086 183 1060 l 768 1086 q 989 918 940 1079 l 996 871 l 999 865 q 568 513 967 504 l 540 315 q 542 304 542 314 q 638 254 626 294 q 551 163 638 160 l 239 163 q 215 194 221 174 q 307 297 208 294 q 322 310 317 301 l 408 921 q 400 939 410 933 q 319 921 363 942 q 267 742 360 822 q 142 863 121 692 m 769 831 q 629 929 757 939 q 622 899 624 915 q 617 863 619 882 l 590 676 q 688 689 636 671 q 769 831 768 729 z "},"Q":{"ha":896,"x_min":99,"x_max":994,"o":"m 103 478 q 538 1079 99 965 q 974 728 925 1114 q 646 163 994 346 l 678 133 l 683 128 l 694 119 l 700 114 l 722 99 l 751 85 q 783 75 761 81 q 942 67 874 164 q 900 -47 950 6 q 865 -64 890 -54 q 332 157 625 -137 q 103 478 136 232 m 735 617 q 583 931 776 896 q 340 571 371 893 q 515 289 311 289 q 735 617 706 335 z "},"R":{"ha":943,"x_min":117,"x_max":1618,"o":"m 146 817 q 381 1096 117 1044 l 788 1096 q 843 1088 814 1096 l 860 1085 l 868 1085 q 895 1075 876 1079 q 936 1057 914 1071 q 945 1053 940 1056 q 957 1046 950 1050 l 993 1018 q 1051 847 1051 954 q 863 575 1035 676 q 1040 78 865 299 q 1472 38 1204 -124 q 1518 157 1446 106 q 1604 131 1571 174 q 1581 -3 1618 67 q 1533 -53 1560 -29 q 1474 -96 1507 -76 l 1389 -132 l 1293 -150 l 1144 -150 q 1124 -146 1135 -147 q 1103 -143 1114 -144 q 1054 -126 1075 -136 q 1029 -118 1044 -125 q 1008 -107 1022 -112 l 982 -93 q 682 519 711 104 l 617 517 l 588 304 l 601 293 q 676 264 644 299 q 676 230 678 247 q 669 193 675 213 q 633 163 657 179 l 283 160 q 260 176 271 168 q 358 301 222 282 q 363 326 361 313 q 368 356 365 340 l 450 935 l 451 954 q 331 951 399 972 l 325 946 q 293 796 360 871 q 179 782 239 754 q 146 817 157 797 m 817 825 q 676 943 825 956 q 670 915 672 931 q 665 879 668 899 l 640 703 q 817 825 779 686 z "},"S":{"ha":678,"x_min":89,"x_max":768,"o":"m 197 892 q 206 658 153 756 l 231 626 q 261 594 246 606 l 271 585 q 286 573 279 578 q 297 565 293 568 l 403 489 l 408 483 l 425 468 q 451 446 440 457 q 468 425 461 435 q 469 338 486 382 q 450 313 460 324 q 431 296 440 303 q 219 474 253 251 q 194 500 210 492 q 100 471 138 511 l 92 415 l 92 399 q 90 377 90 388 q 92 360 89 367 l 90 349 l 92 299 q 92 256 90 282 l 92 235 l 92 214 q 92 161 89 182 l 107 139 q 218 168 169 118 q 668 311 506 46 q 544 699 768 571 q 408 910 333 819 q 600 735 571 969 q 617 722 608 728 q 633 714 626 717 q 715 740 679 708 q 724 768 721 754 q 729 796 728 782 l 728 810 q 731 837 731 825 q 729 860 732 849 q 733 900 733 882 l 736 942 l 735 950 l 738 968 l 736 981 l 736 1000 q 739 1053 740 1035 q 733 1065 736 1060 q 725 1076 729 1071 q 615 1047 658 1106 q 418 1082 522 1094 q 197 892 256 1043 z "},"T":{"ha":807,"x_min":143,"x_max":924,"o":"m 188 1042 q 217 1067 197 1056 l 875 1067 q 919 1049 901 1069 l 924 1022 l 924 1006 l 914 935 q 913 915 913 926 q 911 894 913 906 l 897 799 l 889 775 q 872 763 881 768 q 850 754 863 757 q 776 772 811 746 q 768 839 769 799 q 761 871 768 853 l 757 883 l 746 897 q 647 906 701 917 l 563 310 l 564 294 q 651 188 693 288 q 618 156 640 168 l 246 156 q 221 190 229 168 q 254 278 218 238 q 283 285 268 283 q 318 289 299 288 l 339 299 l 344 315 l 428 906 q 269 789 304 935 q 258 775 264 782 q 244 761 251 768 q 169 754 208 746 q 143 783 156 764 l 167 947 q 172 973 169 958 q 178 1006 175 988 q 188 1042 181 1025 z "},"U":{"ha":1065,"x_min":93,"x_max":1199,"o":"m 139 890 q 417 1075 218 1067 l 704 1075 q 736 1046 722 1067 q 639 938 749 940 q 622 926 629 935 l 553 436 l 553 389 q 578 328 557 357 q 836 375 707 235 l 844 393 l 850 413 l 854 422 q 860 448 857 433 q 865 481 863 463 l 918 861 q 919 908 924 881 l 921 917 l 914 935 q 844 1049 801 935 q 861 1063 853 1056 q 881 1075 869 1069 l 1168 1075 q 1199 1053 1185 1069 l 1189 969 q 1093 932 1150 935 l 1079 901 l 1013 446 l 1008 436 l 1006 415 l 997 396 l 992 372 q 979 342 985 356 q 967 318 974 329 l 963 310 q 618 133 838 121 q 344 310 424 115 l 335 360 l 335 378 q 332 419 336 399 l 335 439 l 333 449 l 399 908 l 393 926 q 313 908 357 928 q 257 728 354 808 q 139 890 93 676 z "},"V":{"ha":1089,"x_min":126,"x_max":1221,"o":"m 126 800 q 399 1075 143 1043 l 721 1075 q 732 1067 725 1072 q 746 1056 739 1063 q 656 938 768 949 q 675 876 661 926 q 711 736 689 826 q 764 549 760 554 l 957 935 q 900 1056 854 947 q 931 1075 915 1068 l 1193 1075 q 1221 1046 1208 1067 l 1211 974 q 1144 940 1183 940 l 1129 929 l 804 297 l 800 286 q 797 282 799 285 q 793 274 794 279 l 749 189 l 740 168 l 724 150 q 688 144 707 146 q 650 144 669 143 q 629 183 631 161 l 424 908 l 415 926 q 321 911 371 935 q 311 778 349 850 q 126 800 188 642 z "},"W":{"ha":1376,"x_min":113,"x_max":1501,"o":"m 139 868 q 422 1083 189 1071 l 667 1083 q 703 1076 678 1083 l 715 1065 q 753 1083 733 1082 l 1038 1083 q 1082 1074 1061 1083 q 1000 942 1138 960 l 1081 599 l 1228 907 l 1232 925 l 1236 942 q 1181 1054 1140 951 q 1204 1076 1190 1067 q 1253 1083 1226 1082 q 1311 1083 1279 1085 l 1447 1083 q 1485 1071 1465 1083 l 1493 1063 q 1486 978 1501 1025 q 1415 942 1458 944 l 1401 931 l 1044 167 l 1025 149 q 949 153 989 140 l 939 171 l 874 496 l 869 504 l 861 546 l 857 557 l 676 178 l 669 167 q 575 153 626 132 q 411 928 560 182 l 406 933 q 317 919 365 942 q 271 746 357 828 q 139 868 113 683 m 764 944 q 697 963 729 944 q 647 949 674 944 l 640 942 l 715 601 l 803 781 l 807 796 l 764 944 z "},"X":{"ha":1071,"x_min":110,"x_max":1186,"o":"m 143 882 q 397 1085 200 1064 l 722 1082 q 757 1058 742 1076 q 669 943 778 956 l 740 800 l 857 935 l 865 943 q 822 1058 774 957 q 854 1082 835 1071 l 1153 1082 q 1181 1058 1167 1071 q 1169 974 1186 1018 q 1085 943 1131 943 l 1057 929 q 810 661 1032 911 l 978 332 l 999 303 q 1053 289 1019 292 l 1074 274 q 1067 182 1086 235 q 1040 158 1054 167 l 668 158 q 642 176 654 163 q 729 294 619 286 l 696 358 l 693 371 l 653 453 l 643 474 l 486 290 q 542 179 588 290 q 511 158 529 165 l 207 158 q 185 203 192 172 q 208 274 188 240 q 274 294 238 290 l 278 297 q 572 614 307 319 l 428 899 q 403 929 418 915 l 401 938 q 319 921 364 940 q 228 726 372 788 q 143 882 110 736 z "},"Y":{"ha":1071,"x_min":101,"x_max":1208,"o":"m 167 947 q 393 1082 247 1064 l 717 1082 l 732 1076 q 665 944 790 971 l 764 742 l 913 947 q 865 1058 819 956 q 881 1071 872 1065 q 899 1082 889 1076 l 1175 1082 q 1204 1056 1193 1071 q 1186 968 1208 1013 q 1158 953 1174 958 q 1124 944 1142 947 l 1100 929 l 1090 924 l 833 593 l 819 575 l 817 569 l 782 324 l 782 303 q 843 294 807 290 l 871 286 q 874 186 899 244 q 844 163 863 172 l 457 163 q 433 194 440 171 q 469 289 425 247 q 528 294 494 297 l 544 297 q 563 306 554 296 l 597 554 l 399 935 l 346 932 q 333 927 340 931 q 317 918 326 924 q 296 768 347 847 q 160 746 232 703 q 167 947 101 831 z "},"Z":{"ha":831,"x_min":57,"x_max":925,"o":"m 225 1040 q 240 1058 232 1050 q 257 1072 247 1065 l 883 1072 q 918 1051 906 1072 q 915 985 925 1019 q 894 956 906 971 q 865 921 882 940 l 400 340 q 382 317 390 324 q 422 314 397 311 l 610 314 l 651 325 l 669 335 q 743 457 715 383 l 761 474 q 821 483 786 486 q 860 454 842 476 l 801 200 q 776 165 793 182 q 727 158 754 160 q 668 158 700 157 l 104 158 q 67 174 81 156 q 69 253 57 208 l 607 921 l 418 918 l 393 915 q 370 907 382 913 q 347 894 358 901 q 297 796 310 856 l 286 778 q 254 757 275 768 q 169 789 200 746 q 188 889 169 835 l 189 897 l 200 938 q 207 966 203 950 q 214 1000 211 982 l 225 1040 z "},"[":{"ha":386,"x_min":0,"x_max":0,"o":""},"\\":{"ha":386,"x_min":0,"x_max":0,"o":""},"]":{"ha":386,"x_min":0,"x_max":0,"o":""},"^":{"ha":651,"x_min":0,"x_max":0,"o":""},"_":{"ha":772,"x_min":0,"x_max":0,"o":""},"`":{"ha":463,"x_min":0,"x_max":0,"o":""},"a":{"ha":597,"x_min":69,"x_max":656,"o":"m 143 676 q 226 551 118 560 q 72 318 69 469 q 367 240 135 113 q 464 197 407 192 q 622 281 565 199 q 554 374 656 400 l 593 650 q 592 685 589 664 l 590 699 q 568 761 583 736 q 339 826 482 847 q 143 676 199 794 m 399 653 l 394 622 l 343 604 q 325 595 333 599 q 308 590 317 592 q 339 690 347 638 q 354 698 347 696 q 367 701 361 700 q 399 653 411 693 m 374 476 l 361 383 q 281 392 294 336 q 372 485 303 460 l 374 476 z "},"b":{"ha":665,"x_min":113,"x_max":719,"o":"m 332 1071 l 322 1068 l 311 1063 l 249 1046 q 165 1017 199 1035 q 213 911 113 918 l 140 393 q 131 288 128 333 q 292 197 189 200 q 703 468 599 174 l 719 588 q 397 806 689 897 l 425 1011 q 428 1051 432 1036 q 356 1079 400 1088 l 332 1071 m 496 433 q 332 347 449 290 l 357 525 q 378 632 364 590 q 432 656 407 649 q 496 433 550 633 z "},"c":{"ha":590,"x_min":100,"x_max":661,"o":"m 100 424 q 317 188 117 204 q 629 389 517 185 q 608 467 644 439 q 549 467 578 481 q 350 383 454 338 q 303 535 288 447 q 379 674 313 622 q 438 685 408 688 q 517 554 443 586 q 653 693 661 561 q 403 817 604 842 q 100 424 104 726 z "},"d":{"ha":665,"x_min":46,"x_max":722,"o":"m 613 1061 q 583 1053 593 1058 l 557 1044 l 549 1044 l 536 1039 q 463 1017 489 1031 q 438 965 442 996 q 507 906 438 899 l 494 817 q 186 697 307 846 q 104 319 46 507 q 417 211 210 129 q 429 199 424 204 q 442 190 435 194 q 467 190 456 189 q 489 193 478 190 l 500 199 l 531 206 q 548 213 540 211 q 563 217 556 215 l 608 233 l 619 236 l 665 253 q 678 266 672 260 q 690 279 685 272 q 629 369 718 369 l 722 1044 q 647 1074 694 1082 l 613 1061 m 467 649 l 467 626 l 440 432 q 435 397 438 413 q 428 369 433 381 q 385 350 407 353 q 293 483 285 364 q 396 689 290 629 q 467 649 447 689 z "},"e":{"ha":604,"x_min":58,"x_max":675,"o":"m 101 519 q 161 222 58 338 l 179 208 l 219 186 q 615 365 474 128 q 594 481 675 450 q 553 475 568 481 q 301 413 404 272 l 301 431 l 590 597 q 597 739 664 639 q 375 825 532 840 q 101 519 135 750 m 435 646 l 293 563 q 361 688 268 654 q 435 646 414 690 z "},"f":{"ha":518,"x_min":57,"x_max":693,"o":"m 235 813 q 469 1071 267 1011 l 572 1071 q 665 918 693 1046 q 460 940 551 779 q 433 810 433 886 q 565 761 554 826 q 528 676 564 717 q 439 668 490 665 q 410 665 426 671 l 367 357 l 367 340 q 367 329 367 335 q 369 318 367 324 l 432 314 l 447 306 q 424 200 485 251 l 82 200 q 61 224 75 206 q 153 317 57 319 q 164 326 158 318 l 211 665 q 128 701 157 661 l 139 778 q 235 813 175 819 z "},"g":{"ha":638,"x_min":32,"x_max":742,"o":"m 167 656 q 375 818 229 781 l 472 818 l 488 815 l 497 813 l 569 785 l 667 785 l 697 782 l 717 769 q 636 633 742 639 q 406 368 631 428 q 639 197 636 386 q 444 -12 608 50 q 83 -4 260 -93 q 32 78 43 29 q 125 246 35 174 q 194 425 82 343 q 167 656 113 515 m 432 636 q 383 688 428 676 q 344 576 336 649 q 401 497 344 507 q 432 636 456 532 m 264 186 l 250 189 q 221 144 229 169 q 483 150 333 78 l 500 169 q 406 178 460 181 l 342 181 l 313 183 l 288 183 l 264 186 z "},"h":{"ha":685,"x_min":49,"x_max":744,"o":"m 315 1061 q 358 1074 340 1067 q 432 1039 410 1085 l 399 797 q 669 521 744 907 l 642 325 q 699 290 676 318 l 690 228 l 686 219 q 651 203 669 204 l 74 203 q 53 228 63 211 q 133 325 49 313 l 214 896 l 218 906 q 161 996 133 906 q 182 1019 168 1008 l 265 1044 l 292 1053 l 315 1061 m 482 638 q 439 660 469 661 q 374 618 406 644 l 336 356 l 335 328 q 438 322 376 301 q 457 429 451 367 l 482 626 q 481 631 482 628 q 482 638 481 633 z "},"i":{"ha":421,"x_min":46,"x_max":457,"o":"m 285 864 q 325 1069 161 972 q 457 996 421 1086 q 285 864 446 832 m 158 747 l 369 819 q 425 790 401 819 q 423 744 425 771 q 414 686 421 718 l 364 326 q 436 296 407 324 q 435 269 438 285 q 431 235 433 254 l 429 228 q 418 217 424 222 q 406 206 413 211 l 88 206 q 93 310 46 251 q 157 321 122 321 l 164 326 q 176 393 169 353 l 211 640 q 133 713 121 629 q 143 728 138 719 q 158 747 149 738 z "},"j":{"ha":332,"x_min":-111,"x_max":444,"o":"m 218 928 q 343 861 251 836 q 433 996 444 906 q 304 1069 407 1089 q 218 928 206 1021 m 319 811 l 303 804 l 268 793 q 257 788 260 790 l 246 785 l 211 774 l 200 771 l 138 750 q 111 711 121 733 q 190 638 99 625 l 121 147 l 107 93 q -87 90 14 219 q -15 -46 -111 -21 q 283 85 174 -81 l 286 93 q 306 138 299 117 q 318 174 314 158 l 322 185 l 406 782 q 363 819 390 811 l 346 819 l 319 811 z "},"k":{"ha":685,"x_min":35,"x_max":760,"o":"m 356 1071 l 365 1074 q 433 1056 407 1082 l 438 1031 l 389 681 l 389 663 q 432 697 406 681 l 438 703 q 464 811 392 758 l 714 814 l 726 811 l 738 808 q 760 768 753 793 q 725 700 756 729 q 669 692 701 693 l 647 689 q 626 678 640 686 q 588 657 611 671 l 574 646 l 568 640 l 546 626 q 525 610 539 618 q 510 596 518 603 q 489 581 501 589 l 469 564 q 490 535 478 553 l 496 529 l 510 501 q 519 490 514 496 q 528 475 524 483 l 538 464 l 554 435 q 565 418 561 424 q 572 407 568 413 l 589 382 l 600 367 l 615 347 q 696 313 644 324 q 714 293 710 306 q 681 203 725 239 l 78 203 q 47 222 58 206 q 140 328 35 315 l 222 906 q 158 1004 118 900 q 185 1025 165 1013 l 228 1036 l 240 1039 l 272 1047 l 286 1050 l 317 1061 q 335 1065 326 1063 q 356 1071 344 1068 m 358 364 l 346 379 l 339 322 q 383 319 361 315 l 358 364 z "},"l":{"ha":407,"x_min":57,"x_max":457,"o":"m 333 1058 l 385 1074 q 457 1031 443 1085 l 358 325 q 425 228 454 319 q 413 216 419 222 q 399 203 407 210 l 81 203 q 61 233 64 214 q 157 325 57 318 q 162 346 160 335 q 165 369 164 357 l 242 906 q 171 1004 131 897 q 192 1022 176 1014 l 257 1039 q 290 1047 276 1043 q 317 1056 304 1051 l 333 1058 z "},"m":{"ha":990,"x_min":50,"x_max":1040,"o":"m 307 813 l 319 818 q 396 783 371 828 q 656 758 547 872 q 835 818 732 821 q 981 701 949 818 l 988 649 l 988 632 l 947 325 q 1003 222 1040 317 q 974 203 993 213 l 732 203 q 708 202 721 201 q 681 206 696 203 l 665 203 l 385 203 l 372 208 q 347 203 361 206 q 318 203 333 201 l 103 203 q 53 219 74 201 q 52 252 50 235 q 57 289 54 269 q 136 322 88 322 q 144 365 140 343 l 185 651 q 124 740 94 646 q 153 767 132 751 q 263 800 196 775 l 307 813 m 481 654 q 451 663 468 663 q 378 626 417 656 l 336 322 q 443 325 385 308 l 483 610 q 484 631 485 619 q 481 654 483 642 m 786 654 q 753 663 775 663 q 682 624 717 654 l 643 349 l 644 335 l 646 322 q 746 325 689 308 q 751 345 749 335 q 754 368 753 356 l 789 615 l 786 654 z "},"n":{"ha":685,"x_min":65,"x_max":742,"o":"m 325 810 l 336 815 q 414 782 386 826 q 478 813 439 803 q 679 547 742 842 l 650 318 q 708 281 688 314 l 701 224 l 692 210 q 657 197 678 200 l 96 197 q 74 221 88 203 q 153 318 65 303 l 199 647 q 135 674 158 640 l 144 739 l 160 756 l 167 761 l 238 782 l 249 785 l 260 788 l 325 810 m 490 636 q 458 656 478 654 q 393 614 426 644 l 351 318 q 446 318 393 300 q 451 339 449 328 q 456 363 453 350 l 488 590 q 492 611 490 600 q 490 636 493 622 z "},"o":{"ha":658,"x_min":88,"x_max":701,"o":"m 92 442 q 413 193 122 153 q 701 572 696 275 q 378 819 676 851 q 92 442 88 732 m 447 675 q 492 504 504 601 q 436 342 489 414 q 394 319 414 326 q 343 336 364 321 q 304 483 300 404 q 354 667 293 585 q 399 689 375 682 q 425 684 414 688 q 447 675 436 681 z "},"p":{"ha":686,"x_min":19,"x_max":740,"o":"m 315 826 l 256 807 q 238 800 246 803 q 224 796 231 797 l 157 774 l 142 760 q 194 656 97 657 l 114 75 q 24 -26 19 64 q 47 -54 35 -47 l 294 -54 q 401 -1 376 -71 q 328 68 410 81 l 313 81 l 329 194 q 597 272 478 161 q 736 619 740 432 q 413 810 688 922 q 338 838 383 846 q 315 826 321 832 m 490 656 q 471 357 576 525 q 447 340 458 347 q 422 329 435 333 q 351 360 376 329 l 390 633 q 440 665 414 656 q 490 656 472 665 z "},"q":{"ha":678,"x_min":56,"x_max":775,"o":"m 664 650 l 582 74 q 643 -26 676 65 q 614 -54 628 -46 l 367 -54 q 274 -1 278 -71 q 367 68 286 78 l 385 79 l 401 193 q 153 269 240 160 q 113 614 56 426 q 489 803 243 913 l 550 824 q 706 794 638 842 q 664 650 775 749 m 365 685 q 297 368 233 544 q 340 339 315 350 q 426 371 386 339 l 467 661 q 421 693 443 688 q 365 685 390 693 z "},"r":{"ha":501,"x_min":35,"x_max":596,"o":"m 322 817 l 331 822 q 403 794 378 831 q 596 751 549 875 l 586 678 q 571 654 582 668 l 568 649 q 408 646 486 581 q 395 629 401 639 q 381 608 389 619 l 346 364 q 344 346 344 356 q 346 325 343 336 q 429 288 404 328 q 411 217 433 256 l 392 203 l 82 203 l 65 208 q 83 313 35 257 q 96 317 89 315 q 111 319 103 318 l 142 328 l 186 646 q 124 729 100 638 q 154 760 133 746 q 182 768 167 763 q 217 782 197 774 l 249 789 q 271 797 257 797 l 279 803 l 292 806 l 322 817 z "},"s":{"ha":538,"x_min":81,"x_max":654,"o":"m 139 646 q 333 819 171 779 l 433 819 l 456 817 l 493 803 q 569 806 529 819 l 586 783 l 568 597 l 557 575 q 489 550 532 557 q 528 274 654 450 q 188 206 383 146 q 110 196 150 188 q 81 225 89 201 l 110 435 l 114 447 q 201 475 153 475 q 139 646 118 531 m 403 686 q 357 694 383 694 q 333 649 319 679 l 401 606 l 424 592 q 442 581 439 582 q 403 686 439 635 m 263 429 l 233 447 q 367 325 240 282 l 376 350 q 368 363 372 357 q 357 376 364 369 q 326 393 349 383 l 278 424 l 263 429 z "},"t":{"ha":424,"x_min":113,"x_max":496,"o":"m 275 899 l 272 894 l 263 883 l 253 872 l 243 861 l 175 796 l 156 785 q 119 750 135 771 l 113 701 q 172 660 131 667 l 122 311 l 125 289 q 131 260 131 274 q 232 183 164 189 q 454 297 374 176 q 432 371 467 346 q 339 343 379 392 l 325 343 l 325 363 l 367 664 q 494 764 496 650 q 388 807 485 814 q 332 949 426 954 l 326 949 q 297 925 308 938 q 275 899 285 913 z "},"u":{"ha":651,"x_min":93,"x_max":704,"o":"m 119 797 q 131 809 124 803 q 146 822 138 815 l 347 822 l 364 819 q 382 779 375 804 l 328 393 q 426 399 361 340 l 469 697 q 396 776 382 700 q 426 819 404 797 q 467 822 442 825 l 654 822 l 665 817 q 679 789 672 808 l 621 375 q 676 282 704 372 q 583 239 640 247 l 518 217 l 507 214 l 481 206 l 475 203 l 440 203 q 411 236 421 213 q 129 325 204 128 q 133 418 125 364 l 172 692 l 168 706 q 119 797 93 713 z "},"v":{"ha":644,"x_min":115,"x_max":742,"o":"m 117 733 q 153 819 115 785 l 422 819 l 436 807 l 440 801 q 386 700 457 732 l 429 540 l 433 532 l 522 703 q 492 801 456 726 l 517 819 l 721 819 q 730 809 725 815 q 742 796 735 803 l 732 733 q 676 697 711 708 l 413 221 q 322 204 372 181 q 176 690 313 214 l 167 703 q 117 733 135 704 z "},"w":{"ha":897,"x_min":117,"x_max":988,"o":"m 118 736 q 154 822 117 788 l 369 822 q 407 819 388 825 l 417 814 q 464 822 438 824 l 692 822 l 711 819 q 653 700 768 736 l 694 538 l 779 694 l 783 706 q 746 782 736 722 q 781 822 760 808 l 965 822 q 976 812 971 818 q 988 799 981 806 l 979 739 q 944 708 969 722 l 928 685 q 912 653 921 671 q 890 617 903 636 l 697 256 q 654 204 672 218 q 581 210 619 190 q 518 432 561 239 l 401 242 q 376 213 393 229 l 367 204 q 306 201 336 196 q 275 247 286 221 l 269 267 l 165 682 l 157 700 q 118 736 138 710 m 471 622 q 404 719 449 704 q 375 708 390 710 l 368 700 l 407 549 q 414 524 407 535 q 439 568 424 544 l 471 622 z "},"x":{"ha":694,"x_min":47,"x_max":696,"o":"m 124 726 q 163 808 119 775 l 401 808 q 447 806 418 810 l 463 808 l 658 808 q 690 789 678 806 q 693 755 696 772 q 683 718 690 738 q 673 707 679 713 q 658 696 667 701 q 603 683 636 694 l 585 669 l 561 639 l 546 621 l 539 615 l 503 569 l 489 556 l 532 474 q 540 458 536 468 q 550 442 543 449 l 567 406 q 586 371 574 390 l 594 351 q 608 333 606 339 l 618 322 q 668 300 643 319 q 668 228 679 265 q 656 214 664 221 q 638 200 649 207 l 369 200 q 383 314 314 251 q 365 347 374 324 l 361 351 l 353 371 l 347 376 l 294 308 q 276 200 349 257 l 71 200 q 59 211 64 204 q 47 228 54 218 l 56 285 l 60 292 q 119 319 86 318 q 174 379 147 343 l 239 458 l 249 468 l 267 490 l 276 501 l 286 513 l 271 542 q 254 575 263 551 l 225 626 l 224 635 l 203 672 l 193 683 l 189 692 q 124 726 144 689 z "},"y":{"ha":694,"x_min":38,"x_max":764,"o":"m 138 739 q 174 822 133 786 l 453 822 l 467 810 l 471 804 q 406 703 493 725 l 453 554 l 461 535 q 484 583 467 547 q 533 682 501 619 l 544 706 q 518 799 489 731 q 556 822 529 815 l 743 822 q 753 812 749 818 q 764 799 757 806 l 754 733 q 701 700 732 714 l 340 44 l 328 33 l 322 25 l 303 8 q 72 11 176 -81 q 92 147 38 75 q 256 164 168 207 q 292 213 276 186 q 322 272 308 240 l 325 278 q 192 700 324 306 q 138 739 160 708 z "},"z":{"ha":583,"x_min":50,"x_max":663,"o":"m 169 807 q 193 824 176 814 l 635 824 q 660 801 649 817 q 654 738 663 768 l 349 358 l 338 339 l 421 339 l 440 342 l 468 350 l 482 364 l 485 369 q 574 465 500 461 q 622 442 600 461 q 589 250 626 400 l 582 228 l 542 204 l 82 203 q 53 219 67 204 q 52 253 50 235 q 58 292 54 271 q 88 331 67 306 l 92 336 l 265 554 l 329 633 l 336 643 l 343 649 l 374 689 l 310 689 l 278 685 q 258 631 263 663 l 246 608 q 163 588 208 578 q 136 610 151 593 q 140 682 132 640 l 143 701 q 156 771 147 732 l 157 781 l 165 801 l 169 807 z "},"{":{"ha":464,"x_min":0,"x_max":0,"o":""},"|":{"ha":361,"x_min":0,"x_max":0,"o":""},"}":{"ha":464,"x_min":0,"x_max":0,"o":""},"~":{"ha":811,"x_min":0,"x_max":0,"o":""},"€":{"ha":772,"x_min":0,"x_max":0,"o":""},"‚":{"ha":308,"x_min":0,"x_max":0,"o":""},"ƒ":{"ha":772,"x_min":0,"x_max":0,"o":""},"„":{"ha":463,"x_min":0,"x_max":0,"o":""},"…":{"ha":1389,"x_min":0,"x_max":0,"o":""},"†":{"ha":772,"x_min":0,"x_max":0,"o":""},"‡":{"ha":772,"x_min":0,"x_max":0,"o":""},"ˆ":{"ha":463,"x_min":0,"x_max":0,"o":""},"‰":{"ha":1389,"x_min":0,"x_max":0,"o":""},"Š":{"ha":926,"x_min":0,"x_max":0,"o":""},"‹":{"ha":463,"x_min":0,"x_max":0,"o":""},"Œ":{"ha":1389,"x_min":0,"x_max":0,"o":""},"Ž":{"ha":849,"x_min":0,"x_max":0,"o":""},"‘":{"ha":308,"x_min":0,"x_max":0,"o":""},"’":{"ha":308,"x_min":0,"x_max":0,"o":""},"“":{"ha":463,"x_min":0,"x_max":0,"o":""},"”":{"ha":463,"x_min":0,"x_max":0,"o":""},"•":{"ha":486,"x_min":0,"x_max":0,"o":""},"–":{"ha":772,"x_min":0,"x_max":0,"o":""},"—":{"ha":1389,"x_min":0,"x_max":0,"o":""},"˜":{"ha":463,"x_min":0,"x_max":0,"o":""},"™":{"ha":1389,"x_min":0,"x_max":0,"o":""},"š":{"ha":694,"x_min":0,"x_max":0,"o":""},"›":{"ha":463,"x_min":0,"x_max":0,"o":""},"œ":{"ha":1311,"x_min":0,"x_max":0,"o":""},"ž":{"ha":694,"x_min":0,"x_max":0,"o":""},"Ÿ":{"ha":926,"x_min":0,"x_max":0,"o":""},"¡":{"ha":463,"x_min":0,"x_max":0,"o":""},"¢":{"ha":772,"x_min":0,"x_max":0,"o":""},"£":{"ha":772,"x_min":0,"x_max":0,"o":""},"¥":{"ha":772,"x_min":0,"x_max":0,"o":""},"¦":{"ha":361,"x_min":0,"x_max":0,"o":""},"§":{"ha":772,"x_min":0,"x_max":0,"o":""},"¨":{"ha":463,"x_min":0,"x_max":0,"o":""},"©":{"ha":1024,"x_min":0,"x_max":0,"o":""},"ª":{"ha":514,"x_min":0,"x_max":0,"o":""},"«":{"ha":772,"x_min":0,"x_max":0,"o":""},"¬":{"ha":811,"x_min":0,"x_max":0,"o":""},"®":{"ha":1024,"x_min":0,"x_max":0,"o":""},"¯":{"ha":767,"x_min":0,"x_max":0,"o":""},"°":{"ha":556,"x_min":0,"x_max":0,"o":""},"±":{"ha":763,"x_min":0,"x_max":0,"o":""},"²":{"ha":463,"x_min":0,"x_max":0,"o":""},"³":{"ha":463,"x_min":0,"x_max":0,"o":""},"´":{"ha":463,"x_min":0,"x_max":0,"o":""},"µ":{"ha":800,"x_min":0,"x_max":0,"o":""},"¶":{"ha":746,"x_min":0,"x_max":0,"o":""},"·":{"ha":386,"x_min":0,"x_max":0,"o":""},"¸":{"ha":463,"x_min":0,"x_max":0,"o":""},"¹":{"ha":463,"x_min":0,"x_max":0,"o":""},"º":{"ha":507,"x_min":0,"x_max":0,"o":""},"»":{"ha":772,"x_min":0,"x_max":0,"o":""},"¼":{"ha":1158,"x_min":0,"x_max":0,"o":""},"½":{"ha":1158,"x_min":0,"x_max":0,"o":""},"¾":{"ha":1158,"x_min":0,"x_max":0,"o":""},"¿":{"ha":849,"x_min":0,"x_max":0,"o":""},"À":{"ha":926,"x_min":0,"x_max":0,"o":""},"Á":{"ha":926,"x_min":0,"x_max":0,"o":""},"Â":{"ha":926,"x_min":0,"x_max":0,"o":""},"Ã":{"ha":926,"x_min":0,"x_max":0,"o":""},"Ä":{"ha":926,"x_min":0,"x_max":0,"o":""},"Å":{"ha":926,"x_min":0,"x_max":0,"o":""},"Æ":{"ha":1389,"x_min":0,"x_max":0,"o":""},"Ç":{"ha":1003,"x_min":0,"x_max":0,"o":""},"È":{"ha":926,"x_min":0,"x_max":0,"o":""},"É":{"ha":926,"x_min":0,"x_max":0,"o":""},"Ê":{"ha":926,"x_min":0,"x_max":0,"o":""},"Ë":{"ha":926,"x_min":0,"x_max":0,"o":""},"Ì":{"ha":386,"x_min":0,"x_max":0,"o":""},"Í":{"ha":386,"x_min":0,"x_max":0,"o":""},"Î":{"ha":386,"x_min":0,"x_max":0,"o":""},"Ï":{"ha":386,"x_min":0,"x_max":0,"o":""},"Ð":{"ha":1003,"x_min":0,"x_max":0,"o":""},"Ñ":{"ha":1003,"x_min":0,"x_max":0,"o":""},"Ò":{"ha":1081,"x_min":0,"x_max":0,"o":""},"Ó":{"ha":1081,"x_min":0,"x_max":0,"o":""},"Ô":{"ha":1081,"x_min":0,"x_max":0,"o":""},"Õ":{"ha":1081,"x_min":0,"x_max":0,"o":""},"Ö":{"ha":1081,"x_min":0,"x_max":0,"o":""},"×":{"ha":811,"x_min":0,"x_max":0,"o":""},"Ø":{"ha":1081,"x_min":0,"x_max":0,"o":""},"Ù":{"ha":1003,"x_min":0,"x_max":0,"o":""},"Ú":{"ha":1003,"x_min":0,"x_max":0,"o":""},"Û":{"ha":1003,"x_min":0,"x_max":0,"o":""},"Ü":{"ha":1003,"x_min":0,"x_max":0,"o":""},"Ý":{"ha":926,"x_min":0,"x_max":0,"o":""},"Þ":{"ha":926,"x_min":0,"x_max":0,"o":""},"ß":{"ha":849,"x_min":0,"x_max":0,"o":""},"à":{"ha":772,"x_min":0,"x_max":0,"o":""},"á":{"ha":772,"x_min":0,"x_max":0,"o":""},"â":{"ha":772,"x_min":0,"x_max":0,"o":""},"ã":{"ha":772,"x_min":0,"x_max":0,"o":""},"ä":{"ha":772,"x_min":0,"x_max":0,"o":""},"å":{"ha":772,"x_min":0,"x_max":0,"o":""},"æ":{"ha":1235,"x_min":0,"x_max":0,"o":""},"ç":{"ha":694,"x_min":0,"x_max":0,"o":""},"è":{"ha":772,"x_min":0,"x_max":0,"o":""},"é":{"ha":772,"x_min":0,"x_max":0,"o":""},"ê":{"ha":772,"x_min":0,"x_max":0,"o":""},"ë":{"ha":772,"x_min":0,"x_max":0,"o":""},"ì":{"ha":386,"x_min":0,"x_max":0,"o":""},"í":{"ha":386,"x_min":0,"x_max":0,"o":""},"î":{"ha":386,"x_min":0,"x_max":0,"o":""},"ï":{"ha":386,"x_min":0,"x_max":0,"o":""},"ð":{"ha":772,"x_min":0,"x_max":0,"o":""},"ñ":{"ha":772,"x_min":0,"x_max":0,"o":""},"ò":{"ha":772,"x_min":0,"x_max":0,"o":""},"ó":{"ha":772,"x_min":0,"x_max":0,"o":""},"ô":{"ha":772,"x_min":0,"x_max":0,"o":""},"õ":{"ha":772,"x_min":0,"x_max":0,"o":""},"ö":{"ha":772,"x_min":0,"x_max":0,"o":""},"÷":{"ha":763,"x_min":0,"x_max":0,"o":""},"ø":{"ha":849,"x_min":0,"x_max":0,"o":""},"ù":{"ha":772,"x_min":0,"x_max":0,"o":""},"ú":{"ha":772,"x_min":0,"x_max":0,"o":""},"û":{"ha":772,"x_min":0,"x_max":0,"o":""},"ü":{"ha":772,"x_min":0,"x_max":0,"o":""},"ý":{"ha":694,"x_min":0,"x_max":0,"o":""},"þ":{"ha":772,"x_min":0,"x_max":0,"o":""},"ÿ":{"ha":694,"x_min":0,"x_max":0,"o":""},"≠":{"ha":763,"x_min":0,"x_max":0,"o":""},"∞":{"ha":990,"x_min":0,"x_max":0,"o":""},"≤":{"ha":763,"x_min":0,"x_max":0,"o":""},"≥":{"ha":763,"x_min":0,"x_max":0,"o":""},"∂":{"ha":686,"x_min":0,"x_max":0,"o":""},"∑":{"ha":990,"x_min":0,"x_max":0,"o":""},"∏":{"ha":1143,"x_min":0,"x_max":0,"o":""},"∫":{"ha":381,"x_min":0,"x_max":0,"o":""},"Ω":{"ha":1067,"x_min":0,"x_max":0,"o":""},"√":{"ha":763,"x_min":0,"x_max":0,"o":""},"≈":{"ha":763,"x_min":0,"x_max":0,"o":""},"∆":{"ha":850,"x_min":0,"x_max":0,"o":""},"◊":{"ha":686,"x_min":0,"x_max":0,"o":""},"⁄":{"ha":232,"x_min":0,"x_max":0,"o":""},"":{"ha":694,"x_min":0,"x_max":0,"o":""},"":{"ha":694,"x_min":0,"x_max":0,"o":""},"ı":{"ha":386,"x_min":0,"x_max":0,"o":""},"ˉ":{"ha":463,"x_min":0,"x_max":0,"o":""},"˘":{"ha":463,"x_min":0,"x_max":0,"o":""},"˙":{"ha":463,"x_min":0,"x_max":0,"o":""},"˚":{"ha":463,"x_min":0,"x_max":0,"o":""},"˝":{"ha":463,"x_min":0,"x_max":0,"o":""},"˛":{"ha":463,"x_min":0,"x_max":0,"o":""},"ˇ":{"ha":463,"x_min":0,"x_max":0,"o":""},"Ł":{"ha":772,"x_min":0,"x_max":0,"o":""},"ł":{"ha":308,"x_min":0,"x_max":0,"o":""},"−":{"ha":811,"x_min":0,"x_max":0,"o":""},"₣":{"ha":772,"x_min":0,"x_max":0,"o":""},"Ğ":{"ha":1081,"x_min":0,"x_max":0,"o":""},"ğ":{"ha":772,"x_min":0,"x_max":0,"o":""},"İ":{"ha":386,"x_min":0,"x_max":0,"o":""},"Ş":{"ha":926,"x_min":0,"x_max":0,"o":""},"ş":{"ha":694,"x_min":0,"x_max":0,"o":""},"Ć":{"ha":1003,"x_min":0,"x_max":0,"o":""},"ć":{"ha":694,"x_min":0,"x_max":0,"o":""},"Č":{"ha":1003,"x_min":0,"x_max":0,"o":""},"č":{"ha":694,"x_min":0,"x_max":0,"o":""},"đ":{"ha":772,"x_min":0,"x_max":0,"o":""},"Ă":{"ha":926,"x_min":0,"x_max":0,"o":""},"ă":{"ha":772,"x_min":0,"x_max":0,"o":""},"Ą":{"ha":926,"x_min":0,"x_max":0,"o":""},"ą":{"ha":772,"x_min":0,"x_max":0,"o":""},"Ď":{"ha":1003,"x_min":0,"x_max":0,"o":""},"ď":{"ha":854,"x_min":0,"x_max":0,"o":""},"Đ":{"ha":1003,"x_min":0,"x_max":0,"o":""},"Ę":{"ha":926,"x_min":0,"x_max":0,"o":""},"ę":{"ha":772,"x_min":0,"x_max":0,"o":""},"Ě":{"ha":926,"x_min":0,"x_max":0,"o":""},"ě":{"ha":772,"x_min":0,"x_max":0,"o":""},"Ĺ":{"ha":772,"x_min":0,"x_max":0,"o":""},"ĺ":{"ha":308,"x_min":0,"x_max":0,"o":""},"Ľ":{"ha":772,"x_min":0,"x_max":0,"o":""},"ľ":{"ha":406,"x_min":0,"x_max":0,"o":""},"Ŀ":{"ha":772,"x_min":0,"x_max":0,"o":""},"ŀ":{"ha":464,"x_min":0,"x_max":0,"o":""},"Ń":{"ha":1003,"x_min":0,"x_max":0,"o":""},"ń":{"ha":772,"x_min":0,"x_max":0,"o":""},"Ň":{"ha":1003,"x_min":0,"x_max":0,"o":""},"ň":{"ha":772,"x_min":0,"x_max":0,"o":""},"Ő":{"ha":1081,"x_min":0,"x_max":0,"o":""},"ő":{"ha":772,"x_min":0,"x_max":0,"o":""},"Ŕ":{"ha":1003,"x_min":0,"x_max":0,"o":""},"ŕ":{"ha":463,"x_min":0,"x_max":0,"o":""},"Ř":{"ha":1003,"x_min":0,"x_max":0,"o":""},"ř":{"ha":463,"x_min":0,"x_max":0,"o":""},"Ś":{"ha":926,"x_min":0,"x_max":0,"o":""},"ś":{"ha":694,"x_min":0,"x_max":0,"o":""},"Ţ":{"ha":849,"x_min":0,"x_max":0,"o":""},"ţ":{"ha":386,"x_min":0,"x_max":0,"o":""},"Ť":{"ha":849,"x_min":0,"x_max":0,"o":""},"ť":{"ha":521,"x_min":0,"x_max":0,"o":""},"Ů":{"ha":1003,"x_min":0,"x_max":0,"o":""},"ů":{"ha":772,"x_min":0,"x_max":0,"o":""},"Ű":{"ha":1003,"x_min":0,"x_max":0,"o":""},"ű":{"ha":772,"x_min":0,"x_max":0,"o":""},"Ź":{"ha":849,"x_min":0,"x_max":0,"o":""},"ź":{"ha":694,"x_min":0,"x_max":0,"o":""},"Ż":{"ha":849,"x_min":0,"x_max":0,"o":""},"ż":{"ha":694,"x_min":0,"x_max":0,"o":""},"Γ":{"ha":765,"x_min":0,"x_max":0,"o":""},"Θ":{"ha":1081,"x_min":0,"x_max":0,"o":""},"Φ":{"ha":1108,"x_min":0,"x_max":0,"o":""},"α":{"ha":803,"x_min":0,"x_max":0,"o":""},"δ":{"ha":774,"x_min":0,"x_max":0,"o":""},"ε":{"ha":619,"x_min":0,"x_max":0,"o":""},"σ":{"ha":857,"x_min":0,"x_max":0,"o":""},"τ":{"ha":549,"x_min":0,"x_max":0,"o":""},"φ":{"ha":900,"x_min":0,"x_max":0,"o":""},"‗":{"ha":767,"x_min":0,"x_max":0,"o":""},"‼":{"ha":694,"x_min":0,"x_max":0,"o":""},"ⁿ":{"ha":507,"x_min":0,"x_max":0,"o":""},"₧":{"ha":1519,"x_min":0,"x_max":0,"o":""},"←":{"ha":1389,"x_min":0,"x_max":0,"o":""},"↑":{"ha":694,"x_min":0,"x_max":0,"o":""},"→":{"ha":1389,"x_min":0,"x_max":0,"o":""},"↓":{"ha":694,"x_min":0,"x_max":0,"o":""},"↔":{"ha":1389,"x_min":0,"x_max":0,"o":""},"↕":{"ha":694,"x_min":0,"x_max":0,"o":""},"↨":{"ha":694,"x_min":0,"x_max":0,"o":""},"∟":{"ha":1360,"x_min":0,"x_max":0,"o":""},"∩":{"ha":999,"x_min":0,"x_max":0,"o":""},"≡":{"ha":810,"x_min":0,"x_max":0,"o":""},"⌂":{"ha":839,"x_min":0,"x_max":0,"o":""},"⌐":{"ha":811,"x_min":0,"x_max":0,"o":""},"⌠":{"ha":839,"x_min":0,"x_max":0,"o":""},"⌡":{"ha":839,"x_min":0,"x_max":0,"o":""},"─":{"ha":983,"x_min":0,"x_max":0,"o":""},"│":{"ha":868,"x_min":0,"x_max":0,"o":""},"┌":{"ha":983,"x_min":0,"x_max":0,"o":""},"┐":{"ha":983,"x_min":0,"x_max":0,"o":""},"└":{"ha":983,"x_min":0,"x_max":0,"o":""},"┘":{"ha":983,"x_min":0,"x_max":0,"o":""},"├":{"ha":983,"x_min":0,"x_max":0,"o":""},"┤":{"ha":983,"x_min":0,"x_max":0,"o":""},"┬":{"ha":983,"x_min":0,"x_max":0,"o":""},"┴":{"ha":983,"x_min":0,"x_max":0,"o":""},"┼":{"ha":983,"x_min":0,"x_max":0,"o":""},"═":{"ha":983,"x_min":0,"x_max":0,"o":""},"║":{"ha":983,"x_min":0,"x_max":0,"o":""},"╒":{"ha":983,"x_min":0,"x_max":0,"o":""},"╓":{"ha":983,"x_min":0,"x_max":0,"o":""},"╔":{"ha":983,"x_min":0,"x_max":0,"o":""},"╕":{"ha":983,"x_min":0,"x_max":0,"o":""},"╖":{"ha":983,"x_min":0,"x_max":0,"o":""},"╗":{"ha":983,"x_min":0,"x_max":0,"o":""},"╘":{"ha":983,"x_min":0,"x_max":0,"o":""},"╙":{"ha":983,"x_min":0,"x_max":0,"o":""},"╚":{"ha":983,"x_min":0,"x_max":0,"o":""},"╛":{"ha":983,"x_min":0,"x_max":0,"o":""},"╜":{"ha":983,"x_min":0,"x_max":0,"o":""},"╝":{"ha":983,"x_min":0,"x_max":0,"o":""},"╞":{"ha":983,"x_min":0,"x_max":0,"o":""},"╟":{"ha":983,"x_min":0,"x_max":0,"o":""},"╠":{"ha":983,"x_min":0,"x_max":0,"o":""},"╡":{"ha":983,"x_min":0,"x_max":0,"o":""},"╢":{"ha":983,"x_min":0,"x_max":0,"o":""},"╣":{"ha":983,"x_min":0,"x_max":0,"o":""},"╤":{"ha":983,"x_min":0,"x_max":0,"o":""},"╥":{"ha":983,"x_min":0,"x_max":0,"o":""},"╦":{"ha":983,"x_min":0,"x_max":0,"o":""},"╧":{"ha":983,"x_min":0,"x_max":0,"o":""},"╨":{"ha":983,"x_min":0,"x_max":0,"o":""},"╩":{"ha":983,"x_min":0,"x_max":0,"o":""},"╪":{"ha":983,"x_min":0,"x_max":0,"o":""},"╫":{"ha":983,"x_min":0,"x_max":0,"o":""},"╬":{"ha":983,"x_min":0,"x_max":0,"o":""},"▀":{"ha":983,"x_min":0,"x_max":0,"o":""},"▄":{"ha":983,"x_min":0,"x_max":0,"o":""},"█":{"ha":983,"x_min":0,"x_max":0,"o":""},"▌":{"ha":983,"x_min":0,"x_max":0,"o":""},"▐":{"ha":983,"x_min":0,"x_max":0,"o":""},"░":{"ha":983,"x_min":0,"x_max":0,"o":""},"▒":{"ha":983,"x_min":0,"x_max":0,"o":""},"▓":{"ha":1013,"x_min":0,"x_max":0,"o":""},"■":{"ha":839,"x_min":0,"x_max":0,"o":""},"▬":{"ha":1389,"x_min":0,"x_max":0,"o":""},"▲":{"ha":1375,"x_min":0,"x_max":0,"o":""},"►":{"ha":1375,"x_min":0,"x_max":0,"o":""},"▼":{"ha":1375,"x_min":0,"x_max":0,"o":""},"◄":{"ha":1375,"x_min":0,"x_max":0,"o":""},"○":{"ha":839,"x_min":0,"x_max":0,"o":""},"◘":{"ha":839,"x_min":0,"x_max":0,"o":""},"◙":{"ha":839,"x_min":0,"x_max":0,"o":""},"☺":{"ha":1418,"x_min":0,"x_max":0,"o":""},"☻":{"ha":1461,"x_min":0,"x_max":0,"o":""},"☼":{"ha":1274,"x_min":0,"x_max":0,"o":""},"♀":{"ha":1042,"x_min":0,"x_max":0,"o":""},"♂":{"ha":1042,"x_min":0,"x_max":0,"o":""},"♠":{"ha":738,"x_min":0,"x_max":0,"o":""},"♣":{"ha":911,"x_min":0,"x_max":0,"o":""},"♥":{"ha":825,"x_min":0,"x_max":0,"o":""},"♦":{"ha":708,"x_min":0,"x_max":0,"o":""},"♪":{"ha":694,"x_min":0,"x_max":0,"o":""},"♫":{"ha":1042,"x_min":0,"x_max":0,"o":""},"Ĳ":{"ha":1021,"x_min":0,"x_max":0,"o":""},"ĳ":{"ha":617,"x_min":0,"x_max":0,"o":""},"ŉ":{"ha":839,"x_min":0,"x_max":0,"o":""},"′":{"ha":260,"x_min":0,"x_max":0,"o":""},"″":{"ha":492,"x_min":0,"x_max":0,"o":""},"℅":{"ha":1229,"x_min":0,"x_max":0,"o":""},"ℓ":{"ha":449,"x_min":0,"x_max":0,"o":""},"□":{"ha":839,"x_min":0,"x_max":0,"o":""},"▪":{"ha":492,"x_min":0,"x_max":0,"o":""},"▫":{"ha":492,"x_min":0,"x_max":0,"o":""},"●":{"ha":839,"x_min":0,"x_max":0,"o":""},"◦":{"ha":492,"x_min":0,"x_max":0,"o":""},"Ā":{"ha":926,"x_min":0,"x_max":0,"o":""},"ā":{"ha":772,"x_min":0,"x_max":0,"o":""},"Ĉ":{"ha":1003,"x_min":0,"x_max":0,"o":""},"ĉ":{"ha":694,"x_min":0,"x_max":0,"o":""},"Ċ":{"ha":1003,"x_min":0,"x_max":0,"o":""},"ċ":{"ha":694,"x_min":0,"x_max":0,"o":""},"Ē":{"ha":926,"x_min":0,"x_max":0,"o":""},"ē":{"ha":772,"x_min":0,"x_max":0,"o":""},"Ĕ":{"ha":926,"x_min":0,"x_max":0,"o":""},"ĕ":{"ha":772,"x_min":0,"x_max":0,"o":""},"Ė":{"ha":926,"x_min":0,"x_max":0,"o":""},"ė":{"ha":772,"x_min":0,"x_max":0,"o":""},"Ĝ":{"ha":1081,"x_min":0,"x_max":0,"o":""},"ĝ":{"ha":772,"x_min":0,"x_max":0,"o":""},"Ġ":{"ha":1081,"x_min":0,"x_max":0,"o":""},"ġ":{"ha":772,"x_min":0,"x_max":0,"o":""},"Ģ":{"ha":1081,"x_min":0,"x_max":0,"o":""},"ģ":{"ha":772,"x_min":0,"x_max":0,"o":""},"Ĥ":{"ha":1003,"x_min":0,"x_max":0,"o":""},"ĥ":{"ha":772,"x_min":0,"x_max":0,"o":""},"Ħ":{"ha":1003,"x_min":0,"x_max":0,"o":""},"ħ":{"ha":772,"x_min":0,"x_max":0,"o":""},"Ĩ":{"ha":386,"x_min":0,"x_max":0,"o":""},"ĩ":{"ha":386,"x_min":0,"x_max":0,"o":""},"Ī":{"ha":386,"x_min":0,"x_max":0,"o":""},"ī":{"ha":386,"x_min":0,"x_max":0,"o":""},"Ĭ":{"ha":386,"x_min":0,"x_max":0,"o":""},"ĭ":{"ha":386,"x_min":0,"x_max":0,"o":""},"Į":{"ha":386,"x_min":0,"x_max":0,"o":""},"į":{"ha":308,"x_min":0,"x_max":0,"o":""},"Ĵ":{"ha":694,"x_min":0,"x_max":0,"o":""},"ĵ":{"ha":308,"x_min":0,"x_max":0,"o":""},"Ķ":{"ha":926,"x_min":0,"x_max":0,"o":""},"ķ":{"ha":694,"x_min":0,"x_max":0,"o":""},"ĸ":{"ha":694,"x_min":0,"x_max":0,"o":""},"Ļ":{"ha":772,"x_min":0,"x_max":0,"o":""},"ļ":{"ha":308,"x_min":0,"x_max":0,"o":""},"Ņ":{"ha":1003,"x_min":0,"x_max":0,"o":""},"ņ":{"ha":772,"x_min":0,"x_max":0,"o":""},"Ŋ":{"ha":1004,"x_min":0,"x_max":0,"o":""},"ŋ":{"ha":772,"x_min":0,"x_max":0,"o":""},"Ō":{"ha":1081,"x_min":0,"x_max":0,"o":""},"ō":{"ha":772,"x_min":0,"x_max":0,"o":""},"Ŏ":{"ha":1081,"x_min":0,"x_max":0,"o":""},"ŏ":{"ha":772,"x_min":0,"x_max":0,"o":""},"Ŗ":{"ha":1003,"x_min":0,"x_max":0,"o":""},"ŗ":{"ha":463,"x_min":0,"x_max":0,"o":""},"Ŝ":{"ha":926,"x_min":0,"x_max":0,"o":""},"ŝ":{"ha":694,"x_min":0,"x_max":0,"o":""},"Ŧ":{"ha":849,"x_min":0,"x_max":0,"o":""},"ŧ":{"ha":386,"x_min":0,"x_max":0,"o":""},"Ũ":{"ha":1003,"x_min":0,"x_max":0,"o":""},"ũ":{"ha":772,"x_min":0,"x_max":0,"o":""},"Ū":{"ha":1003,"x_min":0,"x_max":0,"o":""},"ū":{"ha":772,"x_min":0,"x_max":0,"o":""},"Ŭ":{"ha":1003,"x_min":0,"x_max":0,"o":""},"ŭ":{"ha":772,"x_min":0,"x_max":0,"o":""},"Ų":{"ha":1003,"x_min":0,"x_max":0,"o":""},"ų":{"ha":772,"x_min":0,"x_max":0,"o":""},"Ŵ":{"ha":1311,"x_min":0,"x_max":0,"o":""},"ŵ":{"ha":1003,"x_min":0,"x_max":0,"o":""},"Ŷ":{"ha":926,"x_min":0,"x_max":0,"o":""},"ŷ":{"ha":694,"x_min":0,"x_max":0,"o":""},"ſ":{"ha":308,"x_min":0,"x_max":0,"o":""},"Ǻ":{"ha":926,"x_min":0,"x_max":0,"o":""},"ǻ":{"ha":772,"x_min":0,"x_max":0,"o":""},"Ǽ":{"ha":1389,"x_min":0,"x_max":0,"o":""},"ǽ":{"ha":1235,"x_min":0,"x_max":0,"o":""},"Ǿ":{"ha":1081,"x_min":0,"x_max":0,"o":""},"ǿ":{"ha":849,"x_min":0,"x_max":0,"o":""},"·":{"ha":386,"x_min":0,"x_max":0,"o":""},"Ẁ":{"ha":1311,"x_min":0,"x_max":0,"o":""},"ẁ":{"ha":1003,"x_min":0,"x_max":0,"o":""},"Ẃ":{"ha":1311,"x_min":0,"x_max":0,"o":""},"ẃ":{"ha":1003,"x_min":0,"x_max":0,"o":""},"Ẅ":{"ha":1311,"x_min":0,"x_max":0,"o":""},"ẅ":{"ha":1003,"x_min":0,"x_max":0,"o":""},"Ỳ":{"ha":926,"x_min":0,"x_max":0,"o":""},"ỳ":{"ha":694,"x_min":0,"x_max":0,"o":""},"‛":{"ha":308,"x_min":0,"x_max":0,"o":""},"‾":{"ha":463,"x_min":0,"x_max":0,"o":""},"₤":{"ha":772,"x_min":0,"x_max":0,"o":""},"℮":{"ha":833,"x_min":0,"x_max":0,"o":""},"⅛":{"ha":1158,"x_min":0,"x_max":0,"o":""},"⅜":{"ha":1158,"x_min":0,"x_max":0,"o":""},"⅝":{"ha":1158,"x_min":0,"x_max":0,"o":""},"⅞":{"ha":1158,"x_min":0,"x_max":0,"o":""},"":{"ha":463,"x_min":0,"x_max":0,"o":""},"":{"ha":463,"x_min":0,"x_max":0,"o":""},"΄":{"ha":463,"x_min":0,"x_max":0,"o":""},"΅":{"ha":463,"x_min":0,"x_max":0,"o":""},"Ά":{"ha":926,"x_min":0,"x_max":0,"o":""},"Έ":{"ha":1089,"x_min":0,"x_max":0,"o":""},"Ή":{"ha":1164,"x_min":0,"x_max":0,"o":""},"Ί":{"ha":533,"x_min":0,"x_max":0,"o":""},"Ό":{"ha":1075,"x_min":0,"x_max":0,"o":""},"Ύ":{"ha":1188,"x_min":0,"x_max":0,"o":""},"Ώ":{"ha":1044,"x_min":0,"x_max":0,"o":""},"ΐ":{"ha":308,"x_min":0,"x_max":0,"o":""},"Α":{"ha":926,"x_min":0,"x_max":0,"o":""},"Β":{"ha":926,"x_min":0,"x_max":0,"o":""},"Δ":{"ha":928,"x_min":0,"x_max":0,"o":""},"Ε":{"ha":926,"x_min":0,"x_max":0,"o":""},"Ζ":{"ha":849,"x_min":0,"x_max":0,"o":""},"Η":{"ha":1003,"x_min":0,"x_max":0,"o":""},"Ι":{"ha":386,"x_min":0,"x_max":0,"o":""},"Κ":{"ha":926,"x_min":0,"x_max":0,"o":""},"Λ":{"ha":928,"x_min":0,"x_max":0,"o":""},"Μ":{"ha":1157,"x_min":0,"x_max":0,"o":""},"Ν":{"ha":1003,"x_min":0,"x_max":0,"o":""},"Ξ":{"ha":903,"x_min":0,"x_max":0,"o":""},"Ο":{"ha":1081,"x_min":0,"x_max":0,"o":""},"Π":{"ha":1003,"x_min":0,"x_max":0,"o":""},"Ρ":{"ha":926,"x_min":0,"x_max":0,"o":""},"Σ":{"ha":858,"x_min":0,"x_max":0,"o":""},"Τ":{"ha":849,"x_min":0,"x_max":0,"o":""},"Υ":{"ha":926,"x_min":0,"x_max":0,"o":""},"Χ":{"ha":926,"x_min":0,"x_max":0,"o":""},"Ψ":{"ha":1160,"x_min":0,"x_max":0,"o":""},"Ω":{"ha":1039,"x_min":0,"x_max":0,"o":""},"Ϊ":{"ha":386,"x_min":0,"x_max":0,"o":""},"Ϋ":{"ha":926,"x_min":0,"x_max":0,"o":""},"ά":{"ha":803,"x_min":0,"x_max":0,"o":""},"έ":{"ha":619,"x_min":0,"x_max":0,"o":""},"ή":{"ha":772,"x_min":0,"x_max":0,"o":""},"ί":{"ha":308,"x_min":0,"x_max":0,"o":""},"ΰ":{"ha":760,"x_min":0,"x_max":0,"o":""},"β":{"ha":799,"x_min":0,"x_max":0,"o":""},"γ":{"ha":694,"x_min":0,"x_max":0,"o":""},"ζ":{"ha":613,"x_min":0,"x_max":0,"o":""},"η":{"ha":772,"x_min":0,"x_max":0,"o":""},"θ":{"ha":772,"x_min":0,"x_max":0,"o":""},"ι":{"ha":308,"x_min":0,"x_max":0,"o":""},"κ":{"ha":694,"x_min":0,"x_max":0,"o":""},"λ":{"ha":694,"x_min":0,"x_max":0,"o":""},"μ":{"ha":800,"x_min":0,"x_max":0,"o":""},"ν":{"ha":694,"x_min":0,"x_max":0,"o":""},"ξ":{"ha":622,"x_min":0,"x_max":0,"o":""},"ο":{"ha":772,"x_min":0,"x_max":0,"o":""},"ρ":{"ha":790,"x_min":0,"x_max":0,"o":""},"ς":{"ha":669,"x_min":0,"x_max":0,"o":""},"υ":{"ha":760,"x_min":0,"x_max":0,"o":""},"χ":{"ha":729,"x_min":0,"x_max":0,"o":""},"ψ":{"ha":990,"x_min":0,"x_max":0,"o":""},"ω":{"ha":1085,"x_min":0,"x_max":0,"o":""},"ϊ":{"ha":308,"x_min":0,"x_max":0,"o":""},"ϋ":{"ha":760,"x_min":0,"x_max":0,"o":""},"ό":{"ha":772,"x_min":0,"x_max":0,"o":""},"ύ":{"ha":760,"x_min":0,"x_max":0,"o":""},"ώ":{"ha":1085,"x_min":0,"x_max":0,"o":""},"Ё":{"ha":926,"x_min":0,"x_max":0,"o":""},"Ђ":{"ha":1201,"x_min":0,"x_max":0,"o":""},"Ѓ":{"ha":753,"x_min":0,"x_max":0,"o":""},"Є":{"ha":999,"x_min":0,"x_max":0,"o":""},"Ѕ":{"ha":926,"x_min":0,"x_max":0,"o":""},"І":{"ha":386,"x_min":0,"x_max":0,"o":""},"Ї":{"ha":386,"x_min":0,"x_max":0,"o":""},"Ј":{"ha":694,"x_min":0,"x_max":0,"o":""},"Љ":{"ha":1468,"x_min":0,"x_max":0,"o":""},"Њ":{"ha":1403,"x_min":0,"x_max":0,"o":""},"Ћ":{"ha":1186,"x_min":0,"x_max":0,"o":""},"Ќ":{"ha":810,"x_min":0,"x_max":0,"o":""},"Ў":{"ha":882,"x_min":0,"x_max":0,"o":""},"Џ":{"ha":999,"x_min":0,"x_max":0,"o":""},"А":{"ha":926,"x_min":0,"x_max":0,"o":""},"Б":{"ha":911,"x_min":0,"x_max":0,"o":""},"В":{"ha":926,"x_min":0,"x_max":0,"o":""},"Г":{"ha":753,"x_min":0,"x_max":0,"o":""},"Д":{"ha":940,"x_min":0,"x_max":0,"o":""},"Е":{"ha":926,"x_min":0,"x_max":0,"o":""},"Ж":{"ha":1282,"x_min":0,"x_max":0,"o":""},"З":{"ha":839,"x_min":0,"x_max":0,"o":""},"И":{"ha":999,"x_min":0,"x_max":0,"o":""},"Й":{"ha":999,"x_min":0,"x_max":0,"o":""},"К":{"ha":810,"x_min":0,"x_max":0,"o":""},"Л":{"ha":911,"x_min":0,"x_max":0,"o":""},"М":{"ha":1157,"x_min":0,"x_max":0,"o":""},"Н":{"ha":1003,"x_min":0,"x_max":0,"o":""},"О":{"ha":1081,"x_min":0,"x_max":0,"o":""},"П":{"ha":999,"x_min":0,"x_max":0,"o":""},"Р":{"ha":926,"x_min":0,"x_max":0,"o":""},"С":{"ha":1003,"x_min":0,"x_max":0,"o":""},"Т":{"ha":849,"x_min":0,"x_max":0,"o":""},"У":{"ha":882,"x_min":0,"x_max":0,"o":""},"Ф":{"ha":1056,"x_min":0,"x_max":0,"o":""},"Х":{"ha":926,"x_min":0,"x_max":0,"o":""},"Ц":{"ha":1028,"x_min":0,"x_max":0,"o":""},"Ч":{"ha":926,"x_min":0,"x_max":0,"o":""},"Ш":{"ha":1274,"x_min":0,"x_max":0,"o":""},"Щ":{"ha":1301,"x_min":0,"x_max":0,"o":""},"Ъ":{"ha":1100,"x_min":0,"x_max":0,"o":""},"Ы":{"ha":1229,"x_min":0,"x_max":0,"o":""},"Ь":{"ha":911,"x_min":0,"x_max":0,"o":""},"Э":{"ha":999,"x_min":0,"x_max":0,"o":""},"Ю":{"ha":1403,"x_min":0,"x_max":0,"o":""},"Я":{"ha":1003,"x_min":0,"x_max":0,"o":""},"а":{"ha":772,"x_min":0,"x_max":0,"o":""},"б":{"ha":796,"x_min":0,"x_max":0,"o":""},"в":{"ha":738,"x_min":0,"x_max":0,"o":""},"г":{"ha":507,"x_min":0,"x_max":0,"o":""},"д":{"ha":810,"x_min":0,"x_max":0,"o":""},"е":{"ha":772,"x_min":0,"x_max":0,"o":""},"ж":{"ha":929,"x_min":0,"x_max":0,"o":""},"з":{"ha":636,"x_min":0,"x_max":0,"o":""},"и":{"ha":776,"x_min":0,"x_max":0,"o":""},"й":{"ha":776,"x_min":0,"x_max":0,"o":""},"к":{"ha":607,"x_min":0,"x_max":0,"o":""},"л":{"ha":810,"x_min":0,"x_max":0,"o":""},"м":{"ha":954,"x_min":0,"x_max":0,"o":""},"н":{"ha":767,"x_min":0,"x_max":0,"o":""},"о":{"ha":772,"x_min":0,"x_max":0,"o":""},"п":{"ha":753,"x_min":0,"x_max":0,"o":""},"р":{"ha":772,"x_min":0,"x_max":0,"o":""},"с":{"ha":694,"x_min":0,"x_max":0,"o":""},"т":{"ha":636,"x_min":0,"x_max":0,"o":""},"у":{"ha":694,"x_min":0,"x_max":0,"o":""},"ф":{"ha":1143,"x_min":0,"x_max":0,"o":""},"х":{"ha":694,"x_min":0,"x_max":0,"o":""},"ц":{"ha":796,"x_min":0,"x_max":0,"o":""},"ч":{"ha":724,"x_min":0,"x_max":0,"o":""},"ш":{"ha":1114,"x_min":0,"x_max":0,"o":""},"щ":{"ha":1143,"x_min":0,"x_max":0,"o":""},"ъ":{"ha":868,"x_min":0,"x_max":0,"o":""},"ы":{"ha":999,"x_min":0,"x_max":0,"o":""},"ь":{"ha":724,"x_min":0,"x_max":0,"o":""},"э":{"ha":708,"x_min":0,"x_max":0,"o":""},"ю":{"ha":1042,"x_min":0,"x_max":0,"o":""},"я":{"ha":753,"x_min":0,"x_max":0,"o":""},"ё":{"ha":772,"x_min":0,"x_max":0,"o":""},"ђ":{"ha":772,"x_min":0,"x_max":0,"o":""},"ѓ":{"ha":507,"x_min":0,"x_max":0,"o":""},"є":{"ha":708,"x_min":0,"x_max":0,"o":""},"ѕ":{"ha":694,"x_min":0,"x_max":0,"o":""},"і":{"ha":308,"x_min":0,"x_max":0,"o":""},"ї":{"ha":386,"x_min":0,"x_max":0,"o":""},"ј":{"ha":308,"x_min":0,"x_max":0,"o":""},"љ":{"ha":1258,"x_min":0,"x_max":0,"o":""},"њ":{"ha":1128,"x_min":0,"x_max":0,"o":""},"ћ":{"ha":772,"x_min":0,"x_max":0,"o":""},"ќ":{"ha":607,"x_min":0,"x_max":0,"o":""},"ў":{"ha":694,"x_min":0,"x_max":0,"o":""},"џ":{"ha":767,"x_min":0,"x_max":0,"o":""},"Ґ":{"ha":679,"x_min":0,"x_max":0,"o":""},"ґ":{"ha":571,"x_min":0,"x_max":0,"o":""},"―":{"ha":1389,"x_min":0,"x_max":0,"o":""},"№":{"ha":1490,"x_min":0,"x_max":0,"o":""},"π":{"ha":958,"x_min":0,"x_max":0,"o":""}}}
